<svg xmlns="http://www.w3.org/2000/svg" xmlns:xlink="http://www.w3.org/1999/xlink" width="500" zoomAndPan="magnify" viewBox="0 0 375 374.999991" height="500" preserveAspectRatio="xMidYMid meet" version="1.0"><defs><clipPath id="10e2040890"><path d="M 27.527344 100 L 347.777344 100 L 347.777344 275 L 27.527344 275 Z M 27.527344 100 " clip-rule="nonzero"/></clipPath></defs><g clip-path="url(#10e2040890)"><path fill="#ffdeb3" d="M 34.351562 103.421875 C 34.351562 103.855469 34.265625 104.277344 34.097656 104.679688 C 33.933594 105.082031 33.695312 105.4375 33.386719 105.746094 C 33.078125 106.054688 32.722656 106.289062 32.316406 106.457031 C 31.914062 106.625 31.496094 106.707031 31.058594 106.707031 C 30.621094 106.707031 30.203125 106.621094 29.800781 106.453125 C 29.394531 106.289062 29.039062 106.050781 28.730469 105.742188 C 28.425781 105.433594 28.1875 105.078125 28.019531 104.675781 C 27.855469 104.269531 27.769531 103.851562 27.773438 103.414062 C 27.773438 102.980469 27.855469 102.5625 28.023438 102.160156 C 28.191406 101.757812 28.429688 101.402344 28.738281 101.09375 C 29.050781 100.785156 29.40625 100.550781 29.808594 100.382812 C 30.210938 100.21875 30.632812 100.136719 31.070312 100.136719 C 31.503906 100.136719 31.921875 100.222656 32.324219 100.390625 C 32.726562 100.554688 33.082031 100.792969 33.390625 101.101562 C 33.695312 101.410156 33.933594 101.765625 34.101562 102.167969 C 34.265625 102.566406 34.351562 102.988281 34.351562 103.421875 Z M 65.863281 100.136719 C 65.425781 100.136719 65.003906 100.21875 64.601562 100.382812 C 64.199219 100.550781 63.84375 100.785156 63.53125 101.09375 C 63.222656 101.402344 62.984375 101.757812 62.816406 102.160156 C 62.648438 102.5625 62.566406 102.980469 62.5625 103.414062 C 62.5625 103.851562 62.644531 104.269531 62.8125 104.675781 C 62.980469 105.078125 63.214844 105.433594 63.523438 105.742188 C 63.832031 106.050781 64.1875 106.289062 64.589844 106.453125 C 64.996094 106.621094 65.414062 106.707031 65.851562 106.707031 C 66.285156 106.707031 66.707031 106.625 67.109375 106.457031 C 67.511719 106.289062 67.871094 106.054688 68.179688 105.746094 C 68.488281 105.4375 68.726562 105.082031 68.890625 104.679688 C 69.058594 104.277344 69.144531 103.855469 69.144531 103.421875 C 69.144531 102.988281 69.058594 102.566406 68.894531 102.167969 C 68.726562 101.765625 68.488281 101.410156 68.183594 101.101562 C 67.875 100.792969 67.519531 100.554688 67.117188 100.390625 C 66.714844 100.222656 66.296875 100.136719 65.863281 100.136719 Z M 100.644531 100.136719 C 100.210938 100.136719 99.789062 100.21875 99.386719 100.386719 C 98.984375 100.554688 98.628906 100.789062 98.320312 101.097656 C 98.011719 101.40625 97.773438 101.761719 97.605469 102.164062 C 97.441406 102.566406 97.355469 102.984375 97.355469 103.421875 C 97.355469 103.855469 97.441406 104.277344 97.605469 104.679688 C 97.773438 105.082031 98.011719 105.4375 98.320312 105.742188 C 98.628906 106.050781 98.984375 106.289062 99.386719 106.457031 C 99.789062 106.621094 100.210938 106.707031 100.644531 106.707031 C 101.082031 106.707031 101.5 106.621094 101.90625 106.457031 C 102.308594 106.289062 102.664062 106.050781 102.972656 105.742188 C 103.28125 105.4375 103.519531 105.082031 103.683594 104.679688 C 103.851562 104.277344 103.933594 103.855469 103.933594 103.421875 C 103.933594 102.984375 103.851562 102.566406 103.683594 102.164062 C 103.519531 101.761719 103.28125 101.40625 102.972656 101.097656 C 102.664062 100.789062 102.308594 100.554688 101.90625 100.386719 C 101.5 100.21875 101.082031 100.136719 100.644531 100.136719 Z M 135.457031 100.136719 C 135.019531 100.136719 134.601562 100.21875 134.195312 100.386719 C 133.792969 100.554688 133.4375 100.789062 133.128906 101.097656 C 132.820312 101.40625 132.582031 101.761719 132.417969 102.164062 C 132.25 102.566406 132.167969 102.984375 132.167969 103.421875 C 132.167969 103.855469 132.25 104.277344 132.417969 104.679688 C 132.582031 105.082031 132.820312 105.4375 133.128906 105.742188 C 133.4375 106.050781 133.792969 106.289062 134.195312 106.457031 C 134.601562 106.621094 135.019531 106.707031 135.457031 106.707031 C 135.890625 106.707031 136.3125 106.621094 136.714844 106.457031 C 137.117188 106.289062 137.472656 106.050781 137.78125 105.742188 C 138.089844 105.4375 138.328125 105.082031 138.496094 104.679688 C 138.660156 104.277344 138.746094 103.855469 138.746094 103.421875 C 138.746094 102.984375 138.660156 102.566406 138.496094 102.164062 C 138.328125 101.761719 138.089844 101.40625 137.78125 101.097656 C 137.472656 100.789062 137.117188 100.554688 136.714844 100.386719 C 136.3125 100.21875 135.890625 100.136719 135.457031 100.136719 Z M 170.246094 100.136719 C 169.8125 100.136719 169.390625 100.21875 168.988281 100.386719 C 168.585938 100.554688 168.230469 100.789062 167.921875 101.097656 C 167.613281 101.40625 167.375 101.761719 167.210938 102.164062 C 167.042969 102.566406 166.957031 102.984375 166.957031 103.421875 C 166.957031 103.855469 167.042969 104.277344 167.210938 104.679688 C 167.375 105.082031 167.613281 105.4375 167.921875 105.742188 C 168.230469 106.050781 168.585938 106.289062 168.988281 106.457031 C 169.390625 106.621094 169.8125 106.707031 170.246094 106.707031 C 170.683594 106.707031 171.105469 106.621094 171.507812 106.457031 C 171.910156 106.289062 172.265625 106.050781 172.574219 105.742188 C 172.882812 105.4375 173.121094 105.082031 173.285156 104.679688 C 173.453125 104.277344 173.539062 103.855469 173.539062 103.421875 C 173.539062 102.984375 173.453125 102.5625 173.285156 102.160156 C 173.117188 101.757812 172.878906 101.402344 172.566406 101.09375 C 172.257812 100.785156 171.898438 100.546875 171.496094 100.382812 C 171.089844 100.214844 170.667969 100.132812 170.230469 100.136719 Z M 205.023438 100.136719 C 204.585938 100.136719 204.167969 100.21875 203.765625 100.382812 C 203.359375 100.550781 203.003906 100.785156 202.695312 101.09375 C 202.386719 101.402344 202.148438 101.757812 201.980469 102.160156 C 201.8125 102.5625 201.726562 102.980469 201.726562 103.414062 C 201.726562 103.851562 201.808594 104.269531 201.976562 104.675781 C 202.140625 105.078125 202.378906 105.433594 202.6875 105.742188 C 202.996094 106.050781 203.351562 106.289062 203.753906 106.453125 C 204.15625 106.621094 204.574219 106.707031 205.011719 106.707031 C 205.449219 106.707031 205.867188 106.625 206.273438 106.457031 C 206.675781 106.289062 207.03125 106.054688 207.339844 105.746094 C 207.648438 105.4375 207.886719 105.082031 208.054688 104.679688 C 208.222656 104.277344 208.304688 103.855469 208.304688 103.421875 C 208.304688 102.988281 208.222656 102.566406 208.054688 102.167969 C 207.886719 101.765625 207.652344 101.410156 207.34375 101.101562 C 207.035156 100.792969 206.683594 100.554688 206.28125 100.390625 C 205.878906 100.222656 205.460938 100.136719 205.023438 100.136719 Z M 239.816406 100.136719 C 239.382812 100.140625 238.960938 100.226562 238.5625 100.394531 C 238.160156 100.566406 237.808594 100.804688 237.5 101.113281 C 237.195312 101.421875 236.960938 101.777344 236.796875 102.183594 C 236.632812 102.585938 236.550781 103.003906 236.550781 103.4375 C 236.554688 103.871094 236.640625 104.289062 236.808594 104.691406 C 236.976562 105.09375 237.214844 105.445312 237.523438 105.753906 C 237.832031 106.058594 238.191406 106.296875 238.59375 106.460938 C 238.996094 106.625 239.414062 106.707031 239.851562 106.707031 C 240.285156 106.703125 240.703125 106.621094 241.105469 106.453125 C 241.507812 106.285156 241.863281 106.050781 242.171875 105.742188 C 242.476562 105.433594 242.714844 105.078125 242.882812 104.675781 C 243.046875 104.273438 243.128906 103.855469 243.128906 103.421875 C 243.128906 102.984375 243.046875 102.5625 242.878906 102.160156 C 242.710938 101.753906 242.46875 101.398438 242.160156 101.089844 C 241.847656 100.78125 241.488281 100.542969 241.082031 100.378906 C 240.675781 100.214844 240.253906 100.132812 239.816406 100.136719 Z M 274.601562 100.136719 C 274.164062 100.136719 273.746094 100.21875 273.34375 100.386719 C 272.9375 100.554688 272.582031 100.789062 272.273438 101.097656 C 271.964844 101.40625 271.730469 101.761719 271.5625 102.164062 C 271.394531 102.566406 271.3125 102.984375 271.3125 103.421875 C 271.3125 103.855469 271.394531 104.277344 271.5625 104.679688 C 271.730469 105.082031 271.964844 105.4375 272.273438 105.742188 C 272.582031 106.050781 272.9375 106.289062 273.34375 106.457031 C 273.746094 106.621094 274.164062 106.707031 274.601562 106.707031 C 275.035156 106.707031 275.457031 106.621094 275.859375 106.457031 C 276.261719 106.289062 276.617188 106.050781 276.925781 105.742188 C 277.234375 105.4375 277.472656 105.082031 277.640625 104.679688 C 277.804688 104.277344 277.890625 103.855469 277.890625 103.421875 C 277.890625 102.984375 277.804688 102.566406 277.640625 102.164062 C 277.472656 101.761719 277.234375 101.40625 276.925781 101.097656 C 276.617188 100.789062 276.261719 100.554688 275.859375 100.386719 C 275.457031 100.21875 275.035156 100.136719 274.601562 100.136719 Z M 309.394531 100.136719 C 308.957031 100.136719 308.539062 100.21875 308.132812 100.386719 C 307.730469 100.554688 307.375 100.789062 307.066406 101.097656 C 306.757812 101.40625 306.519531 101.761719 306.355469 102.164062 C 306.1875 102.566406 306.105469 102.984375 306.105469 103.421875 C 306.105469 103.855469 306.1875 104.277344 306.355469 104.679688 C 306.519531 105.082031 306.757812 105.4375 307.066406 105.742188 C 307.375 106.050781 307.730469 106.289062 308.132812 106.457031 C 308.539062 106.621094 308.957031 106.707031 309.394531 106.707031 C 309.828125 106.707031 310.25 106.621094 310.652344 106.457031 C 311.054688 106.289062 311.410156 106.050781 311.71875 105.742188 C 312.027344 105.4375 312.265625 105.082031 312.433594 104.679688 C 312.597656 104.277344 312.683594 103.855469 312.683594 103.421875 C 312.683594 102.984375 312.597656 102.566406 312.433594 102.164062 C 312.265625 101.761719 312.027344 101.40625 311.71875 101.097656 C 311.410156 100.789062 311.054688 100.554688 310.652344 100.386719 C 310.25 100.21875 309.828125 100.136719 309.394531 100.136719 Z M 344.1875 106.699219 C 344.621094 106.699219 345.042969 106.613281 345.445312 106.449219 C 345.847656 106.28125 346.203125 106.042969 346.511719 105.734375 C 346.820312 105.425781 347.058594 105.070312 347.226562 104.667969 C 347.390625 104.265625 347.476562 103.847656 347.476562 103.410156 C 347.472656 102.972656 347.390625 102.554688 347.222656 102.152344 C 347.054688 101.75 346.816406 101.394531 346.507812 101.085938 C 346.199219 100.78125 345.84375 100.542969 345.441406 100.375 C 345.035156 100.210938 344.617188 100.128906 344.179688 100.128906 C 343.742188 100.128906 343.324219 100.214844 342.921875 100.378906 C 342.519531 100.546875 342.164062 100.785156 341.855469 101.09375 C 341.546875 101.402344 341.308594 101.761719 341.144531 102.164062 C 340.976562 102.566406 340.894531 102.984375 340.898438 103.421875 C 340.898438 103.855469 340.980469 104.273438 341.148438 104.675781 C 341.316406 105.078125 341.554688 105.429688 341.863281 105.738281 C 342.171875 106.046875 342.527344 106.28125 342.929688 106.449219 C 343.332031 106.613281 343.75 106.699219 344.1875 106.699219 Z M 31.070312 133.742188 C 30.632812 133.738281 30.210938 133.820312 29.808594 133.988281 C 29.40625 134.152344 29.050781 134.390625 28.738281 134.699219 C 28.429688 135.003906 28.191406 135.359375 28.023438 135.761719 C 27.855469 136.164062 27.773438 136.585938 27.773438 137.019531 C 27.769531 137.457031 27.855469 137.875 28.019531 138.277344 C 28.1875 138.679688 28.425781 139.035156 28.730469 139.34375 C 29.039062 139.652344 29.394531 139.890625 29.800781 140.058594 C 30.203125 140.226562 30.621094 140.308594 31.058594 140.308594 C 31.496094 140.3125 31.914062 140.226562 32.316406 140.0625 C 32.722656 139.894531 33.078125 139.65625 33.386719 139.347656 C 33.695312 139.042969 33.933594 138.6875 34.097656 138.28125 C 34.265625 137.878906 34.351562 137.460938 34.351562 137.027344 C 34.351562 136.589844 34.265625 136.171875 34.101562 135.769531 C 33.933594 135.367188 33.695312 135.011719 33.390625 134.707031 C 33.082031 134.398438 32.726562 134.160156 32.324219 133.992188 C 31.921875 133.824219 31.503906 133.742188 31.070312 133.742188 Z M 65.863281 133.742188 C 65.425781 133.738281 65.003906 133.820312 64.601562 133.988281 C 64.199219 134.152344 63.84375 134.390625 63.53125 134.699219 C 63.222656 135.003906 62.984375 135.359375 62.816406 135.761719 C 62.648438 136.164062 62.566406 136.585938 62.5625 137.019531 C 62.5625 137.457031 62.644531 137.875 62.8125 138.277344 C 62.980469 138.679688 63.214844 139.035156 63.523438 139.34375 C 63.832031 139.652344 64.1875 139.890625 64.589844 140.058594 C 64.996094 140.226562 65.414062 140.308594 65.851562 140.308594 C 66.285156 140.3125 66.707031 140.226562 67.109375 140.0625 C 67.511719 139.894531 67.871094 139.65625 68.179688 139.347656 C 68.488281 139.042969 68.726562 138.6875 68.890625 138.28125 C 69.058594 137.878906 69.144531 137.460938 69.144531 137.027344 C 69.144531 136.589844 69.058594 136.171875 68.894531 135.769531 C 68.726562 135.367188 68.488281 135.011719 68.183594 134.707031 C 67.875 134.398438 67.519531 134.160156 67.117188 133.992188 C 66.714844 133.824219 66.296875 133.742188 65.863281 133.742188 Z M 100.644531 133.742188 C 100.210938 133.742188 99.789062 133.824219 99.386719 133.992188 C 98.984375 134.15625 98.628906 134.394531 98.320312 134.703125 C 98.011719 135.011719 97.773438 135.367188 97.605469 135.769531 C 97.441406 136.171875 97.355469 136.589844 97.355469 137.027344 C 97.355469 137.460938 97.441406 137.878906 97.605469 138.28125 C 97.773438 138.683594 98.011719 139.039062 98.320312 139.347656 C 98.628906 139.65625 98.984375 139.894531 99.386719 140.058594 C 99.789062 140.226562 100.210938 140.308594 100.644531 140.308594 C 101.082031 140.308594 101.5 140.226562 101.90625 140.058594 C 102.308594 139.894531 102.664062 139.65625 102.972656 139.347656 C 103.28125 139.039062 103.519531 138.683594 103.683594 138.28125 C 103.851562 137.878906 103.933594 137.460938 103.933594 137.027344 C 103.933594 136.589844 103.851562 136.171875 103.683594 135.769531 C 103.519531 135.367188 103.28125 135.011719 102.972656 134.703125 C 102.664062 134.394531 102.308594 134.15625 101.90625 133.992188 C 101.5 133.824219 101.082031 133.742188 100.644531 133.742188 Z M 135.457031 133.742188 C 135.019531 133.742188 134.601562 133.824219 134.195312 133.992188 C 133.792969 134.15625 133.4375 134.394531 133.128906 134.703125 C 132.820312 135.011719 132.582031 135.367188 132.417969 135.769531 C 132.25 136.171875 132.167969 136.589844 132.167969 137.027344 C 132.167969 137.460938 132.25 137.878906 132.417969 138.28125 C 132.582031 138.683594 132.820312 139.039062 133.128906 139.347656 C 133.4375 139.65625 133.792969 139.894531 134.195312 140.058594 C 134.601562 140.226562 135.019531 140.308594 135.457031 140.308594 C 135.890625 140.308594 136.3125 140.226562 136.714844 140.058594 C 137.117188 139.894531 137.472656 139.65625 137.78125 139.347656 C 138.089844 139.039062 138.328125 138.683594 138.496094 138.28125 C 138.660156 137.878906 138.746094 137.460938 138.746094 137.027344 C 138.746094 136.589844 138.660156 136.171875 138.496094 135.769531 C 138.328125 135.367188 138.089844 135.011719 137.78125 134.703125 C 137.472656 134.394531 137.117188 134.15625 136.714844 133.992188 C 136.3125 133.824219 135.890625 133.742188 135.457031 133.742188 Z M 170.246094 133.742188 C 169.8125 133.742188 169.390625 133.824219 168.988281 133.992188 C 168.585938 134.15625 168.230469 134.394531 167.921875 134.703125 C 167.613281 135.011719 167.375 135.367188 167.210938 135.769531 C 167.042969 136.171875 166.957031 136.589844 166.957031 137.027344 C 166.957031 137.460938 167.042969 137.878906 167.210938 138.28125 C 167.375 138.683594 167.613281 139.039062 167.921875 139.347656 C 168.230469 139.65625 168.585938 139.894531 168.988281 140.058594 C 169.390625 140.226562 169.8125 140.308594 170.246094 140.308594 C 170.683594 140.308594 171.105469 140.226562 171.507812 140.058594 C 171.910156 139.894531 172.265625 139.65625 172.574219 139.347656 C 172.882812 139.039062 173.121094 138.683594 173.285156 138.28125 C 173.453125 137.878906 173.539062 137.460938 173.539062 137.027344 C 173.539062 136.589844 173.453125 136.167969 173.285156 135.765625 C 173.117188 135.359375 172.878906 135.003906 172.566406 134.695312 C 172.257812 134.386719 171.898438 134.152344 171.496094 133.984375 C 171.089844 133.820312 170.667969 133.738281 170.230469 133.742188 Z M 205.039062 133.742188 C 204.605469 133.738281 204.183594 133.820312 203.78125 133.988281 C 203.378906 134.152344 203.019531 134.390625 202.710938 134.699219 C 202.402344 135.003906 202.164062 135.359375 201.996094 135.761719 C 201.828125 136.164062 201.742188 136.585938 201.742188 137.019531 C 201.742188 137.457031 201.824219 137.875 201.992188 138.277344 C 202.15625 138.679688 202.394531 139.035156 202.703125 139.34375 C 203.011719 139.652344 203.367188 139.890625 203.769531 140.058594 C 204.171875 140.226562 204.59375 140.308594 205.03125 140.308594 C 205.464844 140.3125 205.886719 140.226562 206.289062 140.0625 C 206.691406 139.894531 207.046875 139.65625 207.355469 139.347656 C 207.664062 139.042969 207.902344 138.6875 208.070312 138.28125 C 208.238281 137.878906 208.320312 137.460938 208.320312 137.027344 C 208.320312 136.589844 208.238281 136.167969 208.070312 135.765625 C 207.902344 135.363281 207.664062 135.007812 207.355469 134.699219 C 207.046875 134.390625 206.6875 134.15625 206.285156 133.988281 C 205.882812 133.820312 205.460938 133.738281 205.023438 133.742188 Z M 239.832031 133.742188 C 239.398438 133.738281 238.976562 133.820312 238.574219 133.988281 C 238.167969 134.152344 237.8125 134.390625 237.503906 134.699219 C 237.195312 135.003906 236.957031 135.359375 236.789062 135.761719 C 236.621094 136.164062 236.535156 136.585938 236.535156 137.019531 C 236.535156 137.457031 236.617188 137.875 236.785156 138.277344 C 236.949219 138.679688 237.1875 139.035156 237.496094 139.34375 C 237.804688 139.652344 238.160156 139.890625 238.5625 140.058594 C 238.964844 140.226562 239.386719 140.308594 239.820312 140.308594 C 240.257812 140.3125 240.679688 140.226562 241.082031 140.0625 C 241.484375 139.894531 241.839844 139.65625 242.148438 139.347656 C 242.457031 139.042969 242.695312 138.6875 242.863281 138.28125 C 243.03125 137.878906 243.113281 137.460938 243.113281 137.027344 C 243.113281 136.589844 243.03125 136.167969 242.863281 135.765625 C 242.695312 135.363281 242.457031 135.007812 242.148438 134.699219 C 241.839844 134.390625 241.480469 134.15625 241.078125 133.988281 C 240.671875 133.820312 240.253906 133.738281 239.816406 133.742188 Z M 274.617188 133.742188 C 274.179688 133.742188 273.761719 133.824219 273.359375 133.992188 C 272.957031 134.15625 272.601562 134.394531 272.292969 134.703125 C 271.984375 135.011719 271.746094 135.367188 271.578125 135.769531 C 271.410156 136.171875 271.328125 136.589844 271.328125 137.027344 C 271.328125 137.460938 271.410156 137.878906 271.578125 138.28125 C 271.746094 138.683594 271.984375 139.039062 272.292969 139.347656 C 272.601562 139.65625 272.957031 139.894531 273.359375 140.058594 C 273.761719 140.226562 274.179688 140.308594 274.617188 140.308594 C 275.054688 140.308594 275.472656 140.226562 275.875 140.058594 C 276.277344 139.894531 276.632812 139.65625 276.941406 139.347656 C 277.25 139.039062 277.488281 138.683594 277.65625 138.28125 C 277.824219 137.878906 277.90625 137.460938 277.90625 137.027344 C 277.90625 136.589844 277.824219 136.167969 277.65625 135.765625 C 277.488281 135.359375 277.246094 135.003906 276.9375 134.695312 C 276.628906 134.386719 276.269531 134.152344 275.863281 133.984375 C 275.460938 133.820312 275.039062 133.738281 274.601562 133.742188 Z M 309.410156 133.742188 C 308.972656 133.742188 308.554688 133.824219 308.152344 133.992188 C 307.75 134.15625 307.390625 134.394531 307.085938 134.703125 C 306.777344 135.011719 306.539062 135.367188 306.371094 135.769531 C 306.203125 136.171875 306.121094 136.589844 306.121094 137.027344 C 306.121094 137.460938 306.203125 137.878906 306.371094 138.28125 C 306.539062 138.683594 306.777344 139.039062 307.085938 139.347656 C 307.390625 139.65625 307.75 139.894531 308.152344 140.058594 C 308.554688 140.226562 308.972656 140.308594 309.410156 140.308594 C 309.847656 140.308594 310.265625 140.226562 310.667969 140.058594 C 311.070312 139.894531 311.425781 139.65625 311.734375 139.347656 C 312.042969 139.039062 312.28125 138.683594 312.449219 138.28125 C 312.617188 137.878906 312.699219 137.460938 312.699219 137.027344 C 312.699219 136.589844 312.613281 136.167969 312.445312 135.765625 C 312.277344 135.359375 312.039062 135.003906 311.730469 134.695312 C 311.417969 134.386719 311.0625 134.152344 310.65625 133.984375 C 310.253906 133.820312 309.832031 133.738281 309.394531 133.742188 Z M 344.203125 133.742188 C 343.765625 133.734375 343.34375 133.8125 342.9375 133.972656 C 342.53125 134.132812 342.171875 134.367188 341.859375 134.671875 C 341.546875 134.976562 341.300781 135.328125 341.128906 135.730469 C 340.957031 136.128906 340.867188 136.550781 340.863281 136.984375 C 340.859375 137.421875 340.9375 137.84375 341.097656 138.25 C 341.261719 138.652344 341.496094 139.011719 341.800781 139.324219 C 342.109375 139.636719 342.460938 139.878906 342.863281 140.046875 C 343.265625 140.21875 343.6875 140.304688 344.125 140.308594 C 344.5625 140.3125 344.980469 140.234375 345.386719 140.070312 C 345.792969 139.90625 346.152344 139.671875 346.460938 139.363281 C 346.773438 139.058594 347.011719 138.703125 347.183594 138.300781 C 347.351562 137.898438 347.4375 137.480469 347.441406 137.042969 C 347.445312 136.609375 347.363281 136.191406 347.199219 135.789062 C 347.035156 135.386719 346.800781 135.03125 346.496094 134.71875 C 346.191406 134.410156 345.839844 134.171875 345.4375 134 C 345.039062 133.832031 344.621094 133.746094 344.1875 133.742188 Z M 31.070312 167.386719 C 30.632812 167.386719 30.214844 167.46875 29.8125 167.632812 C 29.410156 167.796875 29.054688 168.035156 28.742188 168.339844 C 28.433594 168.644531 28.195312 169 28.027344 169.402344 C 27.859375 169.800781 27.773438 170.21875 27.773438 170.65625 C 27.769531 171.089844 27.851562 171.507812 28.015625 171.910156 C 28.179688 172.3125 28.414062 172.671875 28.71875 172.980469 C 29.027344 173.289062 29.378906 173.527344 29.78125 173.699219 C 30.183594 173.867188 30.601562 173.953125 31.035156 173.957031 C 31.472656 173.960938 31.890625 173.878906 32.292969 173.714844 C 32.699219 173.554688 33.054688 173.320312 33.367188 173.015625 C 33.675781 172.710938 33.917969 172.359375 34.085938 171.957031 C 34.257812 171.558594 34.34375 171.140625 34.351562 170.707031 C 34.355469 170.265625 34.273438 169.84375 34.109375 169.441406 C 33.945312 169.035156 33.710938 168.675781 33.402344 168.363281 C 33.09375 168.050781 32.738281 167.8125 32.332031 167.640625 C 31.929688 167.472656 31.507812 167.386719 31.070312 167.386719 Z M 65.863281 167.386719 C 65.425781 167.386719 65.003906 167.46875 64.601562 167.632812 C 64.199219 167.800781 63.839844 168.035156 63.53125 168.34375 C 63.222656 168.652344 62.984375 169.007812 62.816406 169.410156 C 62.648438 169.8125 62.566406 170.234375 62.5625 170.667969 C 62.5625 171.105469 62.648438 171.523438 62.8125 171.925781 C 62.980469 172.332031 63.21875 172.6875 63.527344 172.996094 C 63.835938 173.300781 64.191406 173.539062 64.597656 173.707031 C 65 173.875 65.417969 173.957031 65.855469 173.957031 C 66.292969 173.957031 66.710938 173.871094 67.117188 173.703125 C 67.519531 173.539062 67.875 173.300781 68.183594 172.992188 C 68.492188 172.679688 68.730469 172.324219 68.894531 171.921875 C 69.0625 171.519531 69.144531 171.097656 69.144531 170.664062 C 69.140625 170.230469 69.058594 169.8125 68.890625 169.410156 C 68.722656 169.011719 68.488281 168.65625 68.179688 168.347656 C 67.871094 168.042969 67.515625 167.804688 67.117188 167.636719 C 66.714844 167.472656 66.296875 167.386719 65.863281 167.386719 Z M 100.644531 167.386719 C 100.210938 167.386719 99.792969 167.46875 99.390625 167.636719 C 98.988281 167.800781 98.632812 168.039062 98.324219 168.34375 C 98.015625 168.652344 97.777344 169.003906 97.609375 169.40625 C 97.441406 169.808594 97.359375 170.226562 97.355469 170.660156 C 97.355469 171.09375 97.4375 171.511719 97.601562 171.914062 C 97.765625 172.316406 98.003906 172.671875 98.308594 172.984375 C 98.613281 173.292969 98.96875 173.53125 99.371094 173.699219 C 99.769531 173.867188 100.1875 173.953125 100.625 173.957031 C 101.058594 173.960938 101.476562 173.878906 101.882812 173.714844 C 102.285156 173.550781 102.640625 173.320312 102.953125 173.015625 C 103.261719 172.710938 103.503906 172.355469 103.671875 171.957031 C 103.84375 171.558594 103.929688 171.140625 103.933594 170.707031 C 103.941406 170.265625 103.859375 169.84375 103.695312 169.4375 C 103.53125 169.03125 103.292969 168.671875 102.984375 168.359375 C 102.675781 168.050781 102.316406 167.808594 101.914062 167.640625 C 101.507812 167.472656 101.085938 167.386719 100.644531 167.386719 Z M 135.4375 167.386719 C 135.003906 167.386719 134.582031 167.46875 134.179688 167.636719 C 133.777344 167.804688 133.421875 168.042969 133.113281 168.351562 C 132.804688 168.65625 132.566406 169.015625 132.398438 169.417969 C 132.230469 169.820312 132.148438 170.238281 132.148438 170.675781 C 132.148438 171.109375 132.234375 171.53125 132.402344 171.933594 C 132.570312 172.335938 132.808594 172.691406 133.117188 172.996094 C 133.425781 173.304688 133.78125 173.542969 134.183594 173.707031 C 134.589844 173.875 135.007812 173.957031 135.445312 173.957031 C 135.878906 173.957031 136.300781 173.871094 136.703125 173.703125 C 137.105469 173.535156 137.460938 173.296875 137.769531 172.988281 C 138.078125 172.679688 138.3125 172.324219 138.480469 171.921875 C 138.644531 171.519531 138.730469 171.097656 138.726562 170.664062 C 138.726562 170.230469 138.644531 169.8125 138.476562 169.414062 C 138.308594 169.011719 138.074219 168.660156 137.765625 168.351562 C 137.460938 168.046875 137.109375 167.808594 136.707031 167.640625 C 136.304688 167.472656 135.890625 167.390625 135.457031 167.386719 Z M 170.230469 167.386719 C 169.792969 167.386719 169.375 167.46875 168.972656 167.636719 C 168.570312 167.804688 168.210938 168.042969 167.90625 168.351562 C 167.597656 168.65625 167.359375 169.015625 167.191406 169.417969 C 167.023438 169.820312 166.941406 170.238281 166.941406 170.675781 C 166.941406 171.109375 167.027344 171.53125 167.195312 171.933594 C 167.359375 172.335938 167.597656 172.691406 167.910156 172.996094 C 168.21875 173.304688 168.574219 173.542969 168.976562 173.707031 C 169.378906 173.875 169.800781 173.957031 170.238281 173.957031 C 170.671875 173.957031 171.09375 173.871094 171.496094 173.703125 C 171.898438 173.535156 172.253906 173.296875 172.5625 172.988281 C 172.871094 172.679688 173.105469 172.324219 173.273438 171.921875 C 173.4375 171.519531 173.519531 171.097656 173.519531 170.664062 C 173.519531 170.226562 173.433594 169.808594 173.269531 169.410156 C 173.101562 169.007812 172.863281 168.652344 172.554688 168.347656 C 172.246094 168.039062 171.890625 167.800781 171.488281 167.636719 C 171.085938 167.46875 170.667969 167.386719 170.230469 167.386719 Z M 205.023438 167.386719 C 204.585938 167.386719 204.167969 167.46875 203.761719 167.632812 C 203.359375 167.800781 203.003906 168.035156 202.695312 168.34375 C 202.382812 168.652344 202.144531 169.007812 201.976562 169.410156 C 201.8125 169.8125 201.726562 170.234375 201.726562 170.667969 C 201.726562 171.105469 201.808594 171.523438 201.976562 171.925781 C 202.144531 172.332031 202.378906 172.6875 202.691406 172.996094 C 203 173.300781 203.355469 173.539062 203.757812 173.707031 C 204.160156 173.875 204.582031 173.957031 205.019531 173.957031 C 205.453125 173.957031 205.875 173.871094 206.277344 173.703125 C 206.679688 173.539062 207.035156 173.300781 207.34375 172.992188 C 207.652344 172.679688 207.890625 172.324219 208.058594 171.921875 C 208.222656 171.519531 208.304688 171.097656 208.304688 170.664062 C 208.304688 170.230469 208.21875 169.8125 208.050781 169.410156 C 207.886719 169.011719 207.648438 168.65625 207.339844 168.347656 C 207.035156 168.042969 206.679688 167.804688 206.277344 167.636719 C 205.875 167.472656 205.457031 167.386719 205.023438 167.386719 Z M 239.816406 167.386719 C 239.382812 167.390625 238.964844 167.476562 238.5625 167.644531 C 238.164062 167.8125 237.8125 168.050781 237.503906 168.359375 C 237.199219 168.667969 236.964844 169.023438 236.800781 169.425781 C 236.632812 169.824219 236.550781 170.242188 236.550781 170.675781 C 236.554688 171.109375 236.636719 171.527344 236.804688 171.929688 C 236.96875 172.328125 237.207031 172.683594 237.511719 172.992188 C 237.820312 173.296875 238.171875 173.535156 238.574219 173.703125 C 238.976562 173.871094 239.394531 173.953125 239.828125 173.957031 C 240.261719 173.957031 240.679688 173.878906 241.082031 173.714844 C 241.484375 173.550781 241.839844 173.316406 242.152344 173.011719 C 242.460938 172.707031 242.699219 172.355469 242.871094 171.953125 C 243.039062 171.554688 243.125 171.140625 243.128906 170.707031 C 243.136719 170.265625 243.054688 169.839844 242.886719 169.433594 C 242.722656 169.023438 242.480469 168.664062 242.171875 168.351562 C 241.859375 168.039062 241.5 167.800781 241.089844 167.632812 C 240.683594 167.464844 240.257812 167.382812 239.816406 167.386719 Z M 274.601562 167.386719 C 274.164062 167.386719 273.746094 167.46875 273.339844 167.636719 C 272.9375 167.804688 272.582031 168.042969 272.273438 168.351562 C 271.964844 168.660156 271.726562 169.015625 271.5625 169.417969 C 271.394531 169.820312 271.3125 170.238281 271.3125 170.675781 C 271.3125 171.109375 271.394531 171.53125 271.5625 171.933594 C 271.730469 172.335938 271.96875 172.691406 272.277344 172.996094 C 272.585938 173.304688 272.941406 173.542969 273.347656 173.707031 C 273.75 173.875 274.167969 173.957031 274.605469 173.957031 C 275.042969 173.957031 275.460938 173.871094 275.863281 173.703125 C 276.269531 173.535156 276.625 173.296875 276.929688 172.988281 C 277.238281 172.679688 277.476562 172.324219 277.640625 171.921875 C 277.808594 171.519531 277.890625 171.097656 277.890625 170.664062 C 277.886719 170.226562 277.804688 169.808594 277.636719 169.410156 C 277.46875 169.007812 277.230469 168.652344 276.921875 168.347656 C 276.613281 168.039062 276.257812 167.800781 275.855469 167.636719 C 275.453125 167.46875 275.035156 167.386719 274.601562 167.386719 Z M 309.394531 167.386719 C 308.957031 167.386719 308.535156 167.46875 308.132812 167.636719 C 307.730469 167.804688 307.375 168.042969 307.066406 168.351562 C 306.757812 168.65625 306.519531 169.015625 306.355469 169.417969 C 306.1875 169.820312 306.105469 170.238281 306.105469 170.675781 C 306.105469 171.109375 306.1875 171.53125 306.355469 171.933594 C 306.523438 172.335938 306.761719 172.691406 307.070312 172.996094 C 307.378906 173.304688 307.734375 173.542969 308.140625 173.707031 C 308.542969 173.875 308.960938 173.957031 309.398438 173.957031 C 309.835938 173.957031 310.253906 173.871094 310.65625 173.703125 C 311.0625 173.535156 311.414062 173.296875 311.722656 172.988281 C 312.03125 172.679688 312.269531 172.324219 312.433594 171.921875 C 312.601562 171.519531 312.683594 171.097656 312.683594 170.664062 C 312.679688 170.226562 312.597656 169.808594 312.429688 169.410156 C 312.261719 169.007812 312.023438 168.652344 311.714844 168.347656 C 311.40625 168.039062 311.050781 167.800781 310.648438 167.636719 C 310.246094 167.46875 309.828125 167.386719 309.394531 167.386719 Z M 344.1875 167.386719 C 343.75 167.382812 343.328125 167.460938 342.925781 167.625 C 342.519531 167.785156 342.160156 168.019531 341.851562 168.324219 C 341.539062 168.628906 341.296875 168.984375 341.125 169.382812 C 340.957031 169.785156 340.867188 170.203125 340.863281 170.636719 C 340.859375 171.074219 340.9375 171.492188 341.101562 171.898438 C 341.261719 172.300781 341.496094 172.660156 341.804688 172.96875 C 342.109375 173.28125 342.460938 173.523438 342.863281 173.691406 C 343.265625 173.863281 343.683594 173.953125 344.117188 173.957031 C 344.554688 173.960938 344.976562 173.882812 345.378906 173.71875 C 345.785156 173.554688 346.140625 173.324219 346.453125 173.019531 C 346.765625 172.714844 347.007812 172.359375 347.179688 171.960938 C 347.347656 171.558594 347.4375 171.140625 347.441406 170.707031 C 347.445312 170.269531 347.367188 169.851562 347.203125 169.445312 C 347.039062 169.042969 346.808594 168.683594 346.5 168.371094 C 346.195312 168.0625 345.84375 167.820312 345.441406 167.648438 C 345.039062 167.480469 344.621094 167.390625 344.1875 167.386719 Z M 31.070312 200.992188 C 30.632812 200.988281 30.214844 201.070312 29.8125 201.238281 C 29.410156 201.402344 29.054688 201.636719 28.742188 201.945312 C 28.433594 202.25 28.195312 202.605469 28.027344 203.003906 C 27.859375 203.40625 27.773438 203.824219 27.773438 204.257812 C 27.769531 204.695312 27.851562 205.113281 28.015625 205.515625 C 28.179688 205.917969 28.414062 206.273438 28.71875 206.582031 C 29.027344 206.894531 29.378906 207.132812 29.78125 207.300781 C 30.183594 207.472656 30.601562 207.558594 31.035156 207.558594 C 31.472656 207.5625 31.890625 207.484375 32.292969 207.320312 C 32.699219 207.15625 33.054688 206.921875 33.367188 206.617188 C 33.675781 206.3125 33.917969 205.960938 34.085938 205.5625 C 34.257812 205.160156 34.34375 204.742188 34.351562 204.308594 C 34.351562 203.871094 34.269531 203.453125 34.105469 203.050781 C 33.941406 202.644531 33.703125 202.289062 33.394531 201.980469 C 33.085938 201.667969 32.730469 201.429688 32.328125 201.261719 C 31.925781 201.09375 31.507812 201.007812 31.070312 201.007812 Z M 65.863281 200.992188 C 65.425781 200.988281 65.003906 201.070312 64.601562 201.238281 C 64.199219 201.402344 63.84375 201.640625 63.53125 201.949219 C 63.222656 202.253906 62.984375 202.609375 62.816406 203.011719 C 62.648438 203.414062 62.566406 203.835938 62.5625 204.269531 C 62.5625 204.707031 62.644531 205.125 62.8125 205.527344 C 62.980469 205.929688 63.214844 206.285156 63.523438 206.59375 C 63.832031 206.902344 64.1875 207.140625 64.589844 207.308594 C 64.996094 207.476562 65.414062 207.558594 65.851562 207.558594 C 66.285156 207.5625 66.707031 207.476562 67.109375 207.3125 C 67.511719 207.144531 67.871094 206.90625 68.179688 206.597656 C 68.488281 206.292969 68.726562 205.9375 68.890625 205.535156 C 69.058594 205.128906 69.144531 204.710938 69.144531 204.277344 C 69.140625 203.84375 69.054688 203.425781 68.886719 203.027344 C 68.722656 202.625 68.484375 202.273438 68.175781 201.964844 C 67.867188 201.660156 67.515625 201.425781 67.113281 201.257812 C 66.714844 201.09375 66.296875 201.007812 65.863281 201.007812 Z M 100.644531 200.992188 C 100.210938 200.992188 99.792969 201.074219 99.390625 201.238281 C 98.988281 201.40625 98.632812 201.640625 98.324219 201.949219 C 98.015625 202.257812 97.777344 202.609375 97.609375 203.011719 C 97.441406 203.410156 97.359375 203.828125 97.355469 204.265625 C 97.355469 204.699219 97.4375 205.117188 97.601562 205.519531 C 97.765625 205.921875 98.003906 206.277344 98.308594 206.585938 C 98.613281 206.894531 98.96875 207.132812 99.371094 207.304688 C 99.769531 207.472656 100.1875 207.558594 100.625 207.558594 C 101.058594 207.5625 101.476562 207.484375 101.882812 207.320312 C 102.285156 207.15625 102.640625 206.921875 102.953125 206.617188 C 103.261719 206.3125 103.503906 205.960938 103.671875 205.5625 C 103.84375 205.160156 103.929688 204.742188 103.933594 204.308594 C 103.9375 203.871094 103.855469 203.453125 103.691406 203.046875 C 103.523438 202.644531 103.285156 202.285156 102.976562 201.976562 C 102.667969 201.664062 102.3125 201.425781 101.910156 201.257812 C 101.503906 201.089844 101.082031 201.007812 100.644531 201.007812 Z M 135.4375 200.992188 C 135.003906 200.992188 134.582031 201.074219 134.179688 201.242188 C 133.777344 201.40625 133.421875 201.644531 133.113281 201.953125 C 132.804688 202.261719 132.566406 202.617188 132.398438 203.019531 C 132.234375 203.421875 132.148438 203.839844 132.148438 204.277344 C 132.148438 204.710938 132.234375 205.128906 132.398438 205.53125 C 132.566406 205.933594 132.804688 206.289062 133.113281 206.597656 C 133.421875 206.90625 133.777344 207.144531 134.179688 207.308594 C 134.582031 207.476562 135.003906 207.558594 135.4375 207.558594 C 135.875 207.558594 136.292969 207.476562 136.699219 207.308594 C 137.101562 207.144531 137.457031 206.90625 137.765625 206.597656 C 138.074219 206.289062 138.308594 205.933594 138.476562 205.53125 C 138.644531 205.128906 138.726562 204.710938 138.726562 204.277344 C 138.726562 203.84375 138.640625 203.425781 138.472656 203.027344 C 138.308594 202.628906 138.070312 202.277344 137.765625 201.96875 C 137.457031 201.664062 137.105469 201.425781 136.707031 201.261719 C 136.304688 201.09375 135.890625 201.011719 135.457031 201.007812 Z M 170.230469 200.992188 C 169.796875 200.992188 169.375 201.074219 168.972656 201.242188 C 168.570312 201.40625 168.214844 201.644531 167.90625 201.953125 C 167.597656 202.261719 167.359375 202.617188 167.191406 203.019531 C 167.027344 203.421875 166.941406 203.839844 166.941406 204.277344 C 166.941406 204.710938 167.027344 205.128906 167.191406 205.53125 C 167.359375 205.933594 167.597656 206.289062 167.90625 206.597656 C 168.214844 206.90625 168.570312 207.144531 168.972656 207.308594 C 169.375 207.476562 169.796875 207.558594 170.230469 207.558594 C 170.667969 207.558594 171.085938 207.476562 171.488281 207.308594 C 171.894531 207.144531 172.25 206.90625 172.558594 206.597656 C 172.867188 206.289062 173.101562 205.933594 173.269531 205.53125 C 173.4375 205.128906 173.519531 204.710938 173.519531 204.277344 C 173.519531 203.839844 173.433594 203.425781 173.265625 203.023438 C 173.097656 202.625 172.859375 202.269531 172.550781 201.964844 C 172.242188 201.65625 171.886719 201.421875 171.484375 201.257812 C 171.085938 201.089844 170.664062 201.007812 170.230469 201.007812 Z M 205.023438 200.992188 C 204.585938 200.988281 204.167969 201.070312 203.765625 201.238281 C 203.359375 201.402344 203.003906 201.640625 202.695312 201.949219 C 202.386719 202.253906 202.148438 202.609375 201.980469 203.011719 C 201.8125 203.414062 201.726562 203.835938 201.726562 204.269531 C 201.726562 204.707031 201.808594 205.125 201.976562 205.527344 C 202.140625 205.929688 202.378906 206.285156 202.6875 206.59375 C 202.996094 206.902344 203.351562 207.140625 203.753906 207.308594 C 204.15625 207.476562 204.574219 207.558594 205.011719 207.558594 C 205.449219 207.5625 205.867188 207.476562 206.273438 207.3125 C 206.675781 207.144531 207.03125 206.90625 207.339844 206.597656 C 207.648438 206.292969 207.886719 205.9375 208.054688 205.535156 C 208.222656 205.128906 208.304688 204.710938 208.304688 204.277344 C 208.300781 203.84375 208.21875 203.425781 208.050781 203.027344 C 207.882812 202.625 207.644531 202.273438 207.339844 201.964844 C 207.03125 201.660156 206.675781 201.425781 206.277344 201.257812 C 205.875 201.09375 205.457031 201.007812 205.023438 201.007812 Z M 239.816406 200.992188 C 239.382812 200.996094 238.964844 201.082031 238.5625 201.25 C 238.164062 201.417969 237.8125 201.65625 237.503906 201.964844 C 237.199219 202.273438 236.964844 202.625 236.800781 203.027344 C 236.632812 203.429688 236.550781 203.847656 236.550781 204.28125 C 236.554688 204.714844 236.636719 205.132812 236.804688 205.535156 C 236.96875 205.933594 237.207031 206.289062 237.511719 206.59375 C 237.820312 206.902344 238.171875 207.140625 238.574219 207.308594 C 238.976562 207.472656 239.394531 207.558594 239.828125 207.558594 C 240.261719 207.5625 240.679688 207.480469 241.082031 207.316406 C 241.484375 207.152344 241.839844 206.917969 242.152344 206.613281 C 242.460938 206.308594 242.699219 205.957031 242.871094 205.558594 C 243.039062 205.160156 243.125 204.742188 243.128906 204.308594 C 243.132812 203.871094 243.050781 203.449219 242.882812 203.042969 C 242.714844 202.636719 242.476562 202.277344 242.164062 201.964844 C 241.851562 201.65625 241.492188 201.417969 241.085938 201.253906 C 240.679688 201.085938 240.257812 201.003906 239.816406 201.007812 Z M 274.601562 200.992188 C 274.164062 200.992188 273.746094 201.074219 273.34375 201.242188 C 272.9375 201.40625 272.582031 201.644531 272.273438 201.953125 C 271.964844 202.261719 271.730469 202.617188 271.5625 203.019531 C 271.394531 203.421875 271.3125 203.839844 271.3125 204.277344 C 271.3125 204.710938 271.394531 205.128906 271.5625 205.53125 C 271.730469 205.933594 271.964844 206.289062 272.273438 206.597656 C 272.582031 206.90625 272.9375 207.144531 273.34375 207.308594 C 273.746094 207.476562 274.164062 207.558594 274.601562 207.558594 C 275.035156 207.558594 275.457031 207.476562 275.859375 207.308594 C 276.261719 207.144531 276.617188 206.90625 276.925781 206.597656 C 277.234375 206.289062 277.472656 205.933594 277.640625 205.53125 C 277.804688 205.128906 277.890625 204.710938 277.890625 204.277344 C 277.886719 203.839844 277.800781 203.425781 277.632812 203.023438 C 277.464844 202.625 277.230469 202.269531 276.921875 201.964844 C 276.613281 201.65625 276.257812 201.421875 275.855469 201.257812 C 275.453125 201.089844 275.035156 201.007812 274.601562 201.007812 Z M 309.394531 200.992188 C 308.957031 200.992188 308.539062 201.074219 308.132812 201.242188 C 307.730469 201.40625 307.375 201.644531 307.066406 201.953125 C 306.757812 202.261719 306.519531 202.617188 306.355469 203.019531 C 306.1875 203.421875 306.105469 203.839844 306.105469 204.277344 C 306.105469 204.710938 306.1875 205.128906 306.355469 205.53125 C 306.519531 205.933594 306.757812 206.289062 307.066406 206.597656 C 307.375 206.90625 307.730469 207.144531 308.132812 207.308594 C 308.539062 207.476562 308.957031 207.558594 309.394531 207.558594 C 309.828125 207.558594 310.25 207.476562 310.652344 207.308594 C 311.054688 207.144531 311.410156 206.90625 311.71875 206.597656 C 312.027344 206.289062 312.265625 205.933594 312.433594 205.53125 C 312.597656 205.128906 312.683594 204.710938 312.683594 204.277344 C 312.679688 203.839844 312.59375 203.425781 312.425781 203.023438 C 312.257812 202.625 312.019531 202.269531 311.714844 201.964844 C 311.40625 201.65625 311.050781 201.421875 310.648438 201.257812 C 310.246094 201.089844 309.828125 201.007812 309.394531 201.007812 Z M 344.1875 200.992188 C 343.75 200.988281 343.328125 201.066406 342.925781 201.226562 C 342.519531 201.390625 342.160156 201.625 341.851562 201.929688 C 341.539062 202.234375 341.296875 202.585938 341.125 202.988281 C 340.957031 203.386719 340.867188 203.804688 340.863281 204.242188 C 340.859375 204.675781 340.9375 205.097656 341.101562 205.5 C 341.261719 205.90625 341.496094 206.261719 341.804688 206.574219 C 342.109375 206.886719 342.460938 207.125 342.863281 207.296875 C 343.265625 207.46875 343.683594 207.554688 344.117188 207.558594 C 344.554688 207.566406 344.976562 207.484375 345.378906 207.324219 C 345.785156 207.160156 346.140625 206.925781 346.453125 206.621094 C 346.765625 206.316406 347.007812 205.964844 347.179688 205.5625 C 347.347656 205.164062 347.4375 204.746094 347.441406 204.308594 C 347.445312 203.875 347.363281 203.457031 347.199219 203.054688 C 347.035156 202.652344 346.800781 202.296875 346.496094 201.988281 C 346.191406 201.679688 345.839844 201.4375 345.4375 201.269531 C 345.039062 201.097656 344.621094 201.011719 344.1875 201.007812 Z M 31.070312 234.636719 C 30.632812 234.636719 30.210938 234.71875 29.808594 234.882812 C 29.40625 235.050781 29.046875 235.289062 28.738281 235.59375 C 28.429688 235.902344 28.191406 236.257812 28.023438 236.660156 C 27.855469 237.0625 27.773438 237.484375 27.773438 237.917969 C 27.769531 238.355469 27.855469 238.773438 28.023438 239.175781 C 28.1875 239.582031 28.425781 239.9375 28.734375 240.246094 C 29.042969 240.554688 29.398438 240.789062 29.804688 240.957031 C 30.207031 241.125 30.628906 241.207031 31.0625 241.207031 C 31.5 241.207031 31.921875 241.121094 32.324219 240.953125 C 32.726562 240.789062 33.082031 240.550781 33.390625 240.242188 C 33.699219 239.929688 33.9375 239.574219 34.101562 239.171875 C 34.269531 238.769531 34.351562 238.347656 34.351562 237.914062 C 34.347656 237.480469 34.265625 237.0625 34.097656 236.660156 C 33.929688 236.261719 33.695312 235.90625 33.386719 235.597656 C 33.078125 235.292969 32.726562 235.054688 32.324219 234.886719 C 31.921875 234.722656 31.503906 234.636719 31.070312 234.636719 Z M 65.863281 234.636719 C 65.425781 234.636719 65.003906 234.71875 64.601562 234.882812 C 64.199219 235.050781 63.839844 235.289062 63.53125 235.59375 C 63.222656 235.902344 62.984375 236.257812 62.816406 236.660156 C 62.648438 237.0625 62.566406 237.484375 62.5625 237.917969 C 62.5625 238.355469 62.648438 238.773438 62.8125 239.175781 C 62.980469 239.582031 63.21875 239.9375 63.527344 240.246094 C 63.835938 240.554688 64.191406 240.789062 64.597656 240.957031 C 65 241.125 65.417969 241.207031 65.855469 241.207031 C 66.292969 241.207031 66.710938 241.121094 67.117188 240.953125 C 67.519531 240.789062 67.875 240.550781 68.183594 240.242188 C 68.492188 239.929688 68.730469 239.574219 68.894531 239.171875 C 69.0625 238.769531 69.144531 238.347656 69.144531 237.914062 C 69.140625 237.480469 69.058594 237.0625 68.890625 236.660156 C 68.722656 236.261719 68.488281 235.90625 68.179688 235.597656 C 67.871094 235.292969 67.515625 235.054688 67.117188 234.886719 C 66.714844 234.722656 66.296875 234.636719 65.863281 234.636719 Z M 100.644531 234.636719 C 100.210938 234.636719 99.789062 234.71875 99.386719 234.886719 C 98.984375 235.054688 98.628906 235.292969 98.320312 235.601562 C 98.011719 235.910156 97.773438 236.265625 97.605469 236.667969 C 97.441406 237.070312 97.355469 237.488281 97.355469 237.925781 C 97.355469 238.359375 97.441406 238.78125 97.609375 239.183594 C 97.777344 239.585938 98.015625 239.941406 98.324219 240.246094 C 98.632812 240.554688 98.988281 240.792969 99.390625 240.957031 C 99.796875 241.125 100.214844 241.207031 100.652344 241.207031 C 101.089844 241.207031 101.507812 241.121094 101.910156 240.953125 C 102.3125 240.785156 102.667969 240.546875 102.976562 240.238281 C 103.285156 239.929688 103.523438 239.574219 103.6875 239.171875 C 103.855469 238.769531 103.9375 238.347656 103.933594 237.914062 C 103.933594 237.476562 103.851562 237.058594 103.683594 236.660156 C 103.515625 236.257812 103.277344 235.902344 102.96875 235.597656 C 102.660156 235.289062 102.304688 235.050781 101.902344 234.886719 C 101.5 234.71875 101.082031 234.636719 100.644531 234.636719 Z M 135.4375 234.636719 C 135.003906 234.636719 134.582031 234.71875 134.179688 234.886719 C 133.777344 235.054688 133.421875 235.292969 133.113281 235.601562 C 132.804688 235.910156 132.566406 236.265625 132.398438 236.667969 C 132.230469 237.070312 132.148438 237.488281 132.148438 237.925781 C 132.148438 238.359375 132.234375 238.78125 132.402344 239.183594 C 132.570312 239.585938 132.808594 239.941406 133.117188 240.246094 C 133.425781 240.554688 133.78125 240.792969 134.183594 240.957031 C 134.589844 241.125 135.007812 241.207031 135.445312 241.207031 C 135.878906 241.207031 136.300781 241.121094 136.703125 240.953125 C 137.105469 240.785156 137.460938 240.546875 137.769531 240.238281 C 138.078125 239.929688 138.3125 239.574219 138.480469 239.171875 C 138.644531 238.769531 138.730469 238.347656 138.726562 237.914062 C 138.726562 237.480469 138.644531 237.0625 138.476562 236.664062 C 138.308594 236.261719 138.074219 235.910156 137.765625 235.601562 C 137.460938 235.296875 137.109375 235.058594 136.707031 234.890625 C 136.304688 234.722656 135.890625 234.640625 135.457031 234.636719 Z M 170.230469 234.636719 C 169.792969 234.636719 169.375 234.71875 168.972656 234.886719 C 168.570312 235.054688 168.214844 235.292969 167.90625 235.601562 C 167.597656 235.910156 167.359375 236.265625 167.191406 236.667969 C 167.023438 237.070312 166.941406 237.488281 166.941406 237.925781 C 166.941406 238.359375 167.027344 238.78125 167.195312 239.183594 C 167.359375 239.585938 167.597656 239.941406 167.910156 240.246094 C 168.21875 240.554688 168.574219 240.792969 168.976562 240.957031 C 169.378906 241.125 169.800781 241.207031 170.238281 241.207031 C 170.671875 241.207031 171.09375 241.121094 171.496094 240.953125 C 171.898438 240.785156 172.253906 240.546875 172.5625 240.238281 C 172.871094 239.929688 173.105469 239.574219 173.273438 239.171875 C 173.4375 238.769531 173.519531 238.347656 173.519531 237.914062 C 173.519531 237.476562 173.433594 237.058594 173.265625 236.660156 C 173.101562 236.257812 172.863281 235.902344 172.554688 235.597656 C 172.246094 235.289062 171.890625 235.050781 171.488281 234.886719 C 171.085938 234.71875 170.667969 234.636719 170.230469 234.636719 Z M 205.023438 234.636719 C 204.585938 234.636719 204.167969 234.71875 203.761719 234.882812 C 203.359375 235.050781 203.003906 235.289062 202.695312 235.59375 C 202.382812 235.902344 202.144531 236.257812 201.976562 236.660156 C 201.8125 237.0625 201.726562 237.484375 201.726562 237.917969 C 201.726562 238.355469 201.808594 238.773438 201.976562 239.175781 C 202.144531 239.582031 202.378906 239.9375 202.691406 240.246094 C 203 240.554688 203.355469 240.789062 203.757812 240.957031 C 204.160156 241.125 204.582031 241.207031 205.019531 241.207031 C 205.453125 241.207031 205.875 241.121094 206.277344 240.953125 C 206.679688 240.789062 207.035156 240.550781 207.34375 240.242188 C 207.652344 239.929688 207.890625 239.574219 208.058594 239.171875 C 208.222656 238.769531 208.304688 238.347656 208.304688 237.914062 C 208.304688 237.480469 208.21875 237.0625 208.050781 236.660156 C 207.886719 236.261719 207.648438 235.90625 207.339844 235.597656 C 207.035156 235.292969 206.679688 235.054688 206.277344 234.886719 C 205.875 234.722656 205.457031 234.636719 205.023438 234.636719 Z M 239.816406 234.636719 C 239.378906 234.640625 238.960938 234.726562 238.5625 234.894531 C 238.160156 235.066406 237.804688 235.304688 237.5 235.613281 C 237.195312 235.925781 236.960938 236.28125 236.792969 236.683594 C 236.628906 237.085938 236.550781 237.507812 236.550781 237.941406 C 236.554688 238.375 236.640625 238.792969 236.808594 239.195312 C 236.980469 239.597656 237.21875 239.949219 237.527344 240.257812 C 237.835938 240.5625 238.195312 240.796875 238.597656 240.960938 C 239 241.125 239.417969 241.207031 239.855469 241.207031 C 240.292969 241.203125 240.710938 241.121094 241.113281 240.953125 C 241.515625 240.785156 241.867188 240.546875 242.175781 240.238281 C 242.480469 239.929688 242.71875 239.570312 242.882812 239.167969 C 243.050781 238.765625 243.132812 238.347656 243.128906 237.914062 C 243.128906 237.476562 243.042969 237.054688 242.875 236.652344 C 242.707031 236.25 242.464844 235.894531 242.15625 235.585938 C 241.84375 235.28125 241.484375 235.042969 241.082031 234.878906 C 240.675781 234.714844 240.253906 234.632812 239.816406 234.636719 Z M 274.601562 234.636719 C 274.164062 234.636719 273.746094 234.71875 273.339844 234.886719 C 272.9375 235.054688 272.582031 235.292969 272.273438 235.601562 C 271.964844 235.910156 271.726562 236.265625 271.5625 236.667969 C 271.394531 237.070312 271.3125 237.488281 271.3125 237.925781 C 271.3125 238.359375 271.394531 238.78125 271.5625 239.183594 C 271.730469 239.585938 271.96875 239.941406 272.277344 240.246094 C 272.585938 240.554688 272.941406 240.792969 273.347656 240.957031 C 273.75 241.125 274.167969 241.207031 274.605469 241.207031 C 275.042969 241.207031 275.460938 241.121094 275.863281 240.953125 C 276.269531 240.785156 276.625 240.546875 276.929688 240.238281 C 277.238281 239.929688 277.476562 239.574219 277.640625 239.171875 C 277.808594 238.769531 277.890625 238.347656 277.890625 237.914062 C 277.886719 237.476562 277.804688 237.058594 277.636719 236.660156 C 277.46875 236.257812 277.230469 235.902344 276.921875 235.597656 C 276.613281 235.289062 276.257812 235.050781 275.855469 234.886719 C 275.453125 234.71875 275.035156 234.636719 274.601562 234.636719 Z M 309.394531 234.636719 C 308.957031 234.636719 308.535156 234.71875 308.132812 234.886719 C 307.730469 235.054688 307.375 235.292969 307.066406 235.601562 C 306.757812 235.910156 306.519531 236.265625 306.355469 236.667969 C 306.1875 237.070312 306.105469 237.488281 306.105469 237.925781 C 306.105469 238.359375 306.1875 238.78125 306.355469 239.183594 C 306.523438 239.585938 306.761719 239.941406 307.070312 240.246094 C 307.378906 240.554688 307.734375 240.792969 308.140625 240.957031 C 308.542969 241.125 308.960938 241.207031 309.398438 241.207031 C 309.835938 241.207031 310.253906 241.121094 310.65625 240.953125 C 311.0625 240.785156 311.414062 240.546875 311.722656 240.238281 C 312.03125 239.929688 312.269531 239.574219 312.433594 239.171875 C 312.601562 238.769531 312.683594 238.347656 312.683594 237.914062 C 312.679688 237.476562 312.597656 237.058594 312.429688 236.660156 C 312.261719 236.257812 312.023438 235.902344 311.714844 235.597656 C 311.40625 235.289062 311.050781 235.050781 310.648438 234.886719 C 310.246094 234.71875 309.828125 234.636719 309.394531 234.636719 Z M 344.1875 234.636719 C 343.75 234.632812 343.328125 234.710938 342.921875 234.875 C 342.515625 235.039062 342.15625 235.273438 341.84375 235.582031 C 341.535156 235.886719 341.292969 236.242188 341.121094 236.644531 C 340.953125 237.046875 340.867188 237.464844 340.863281 237.902344 C 340.859375 238.339844 340.941406 238.757812 341.105469 239.164062 C 341.273438 239.566406 341.507812 239.925781 341.816406 240.234375 C 342.125 240.546875 342.480469 240.785156 342.886719 240.953125 C 343.289062 241.121094 343.710938 241.207031 344.144531 241.207031 C 344.582031 241.207031 345.003906 241.125 345.410156 240.957031 C 345.8125 240.789062 346.167969 240.550781 346.480469 240.242188 C 346.789062 239.933594 347.027344 239.578125 347.191406 239.175781 C 347.359375 238.769531 347.441406 238.351562 347.441406 237.914062 C 347.441406 237.480469 347.355469 237.066406 347.191406 236.667969 C 347.027344 236.265625 346.792969 235.914062 346.488281 235.609375 C 346.183594 235.300781 345.832031 235.0625 345.433594 234.894531 C 345.035156 234.726562 344.617188 234.640625 344.1875 234.636719 Z M 31.070312 268.242188 C 30.632812 268.238281 30.210938 268.324219 29.808594 268.488281 C 29.40625 268.65625 29.046875 268.890625 28.738281 269.199219 C 28.429688 269.507812 28.191406 269.863281 28.023438 270.265625 C 27.855469 270.667969 27.773438 271.085938 27.773438 271.523438 C 27.769531 271.960938 27.855469 272.378906 28.023438 272.78125 C 28.1875 273.183594 28.425781 273.539062 28.734375 273.847656 C 29.042969 274.15625 29.398438 274.394531 29.804688 274.5625 C 30.207031 274.726562 30.628906 274.8125 31.0625 274.8125 C 31.5 274.808594 31.921875 274.726562 32.324219 274.558594 C 32.726562 274.390625 33.082031 274.152344 33.390625 273.84375 C 33.699219 273.535156 33.9375 273.179688 34.101562 272.777344 C 34.269531 272.375 34.351562 271.953125 34.351562 271.515625 C 34.347656 271.085938 34.261719 270.667969 34.09375 270.269531 C 33.925781 269.871094 33.6875 269.519531 33.378906 269.214844 C 33.074219 268.910156 32.71875 268.671875 32.320312 268.507812 C 31.917969 268.34375 31.503906 268.257812 31.070312 268.257812 Z M 65.863281 268.242188 C 65.425781 268.238281 65.003906 268.324219 64.601562 268.488281 C 64.199219 268.652344 63.84375 268.890625 63.53125 269.199219 C 63.222656 269.503906 62.984375 269.859375 62.816406 270.261719 C 62.648438 270.664062 62.566406 271.085938 62.5625 271.519531 C 62.5625 271.957031 62.644531 272.375 62.8125 272.777344 C 62.980469 273.179688 63.214844 273.535156 63.523438 273.84375 C 63.832031 274.152344 64.1875 274.390625 64.589844 274.558594 C 64.996094 274.726562 65.414062 274.808594 65.851562 274.8125 C 66.285156 274.8125 66.707031 274.726562 67.109375 274.5625 C 67.511719 274.394531 67.871094 274.15625 68.179688 273.847656 C 68.488281 273.542969 68.726562 273.1875 68.890625 272.785156 C 69.058594 272.382812 69.144531 271.960938 69.144531 271.527344 C 69.140625 271.09375 69.054688 270.675781 68.886719 270.277344 C 68.722656 269.875 68.484375 269.523438 68.175781 269.21875 C 67.867188 268.910156 67.515625 268.675781 67.113281 268.507812 C 66.714844 268.34375 66.296875 268.257812 65.863281 268.257812 Z M 100.644531 268.242188 C 100.210938 268.242188 99.789062 268.324219 99.386719 268.492188 C 98.984375 268.65625 98.628906 268.894531 98.320312 269.203125 C 98.011719 269.511719 97.773438 269.867188 97.605469 270.269531 C 97.441406 270.671875 97.355469 271.09375 97.355469 271.527344 C 97.355469 271.964844 97.441406 272.382812 97.609375 272.785156 C 97.777344 273.1875 98.015625 273.542969 98.324219 273.851562 C 98.632812 274.160156 98.988281 274.394531 99.390625 274.5625 C 99.796875 274.730469 100.214844 274.8125 100.652344 274.8125 C 101.089844 274.808594 101.507812 274.726562 101.910156 274.558594 C 102.3125 274.390625 102.667969 274.152344 102.976562 273.84375 C 103.285156 273.535156 103.523438 273.179688 103.6875 272.777344 C 103.855469 272.371094 103.9375 271.953125 103.933594 271.515625 C 103.933594 271.085938 103.847656 270.667969 103.675781 270.269531 C 103.507812 269.867188 103.269531 269.515625 102.964844 269.210938 C 102.65625 268.90625 102.300781 268.671875 101.898438 268.503906 C 101.496094 268.339844 101.078125 268.257812 100.644531 268.257812 Z M 135.4375 268.242188 C 135.003906 268.242188 134.582031 268.324219 134.179688 268.492188 C 133.777344 268.65625 133.421875 268.894531 133.113281 269.203125 C 132.804688 269.511719 132.566406 269.867188 132.398438 270.269531 C 132.234375 270.671875 132.148438 271.089844 132.148438 271.527344 C 132.148438 271.960938 132.234375 272.378906 132.398438 272.78125 C 132.566406 273.183594 132.804688 273.539062 133.113281 273.847656 C 133.421875 274.15625 133.777344 274.394531 134.179688 274.5625 C 134.582031 274.726562 135.003906 274.8125 135.4375 274.8125 C 135.875 274.8125 136.292969 274.726562 136.699219 274.5625 C 137.101562 274.394531 137.457031 274.15625 137.765625 273.847656 C 138.074219 273.539062 138.308594 273.183594 138.476562 272.78125 C 138.644531 272.378906 138.726562 271.960938 138.726562 271.527344 C 138.726562 271.09375 138.640625 270.675781 138.472656 270.277344 C 138.308594 269.878906 138.070312 269.527344 137.765625 269.21875 C 137.457031 268.914062 137.105469 268.675781 136.707031 268.511719 C 136.304688 268.34375 135.890625 268.261719 135.457031 268.257812 Z M 170.230469 268.242188 C 169.796875 268.242188 169.375 268.324219 168.972656 268.492188 C 168.570312 268.65625 168.214844 268.894531 167.90625 269.203125 C 167.597656 269.511719 167.359375 269.867188 167.191406 270.269531 C 167.027344 270.671875 166.941406 271.089844 166.941406 271.527344 C 166.941406 271.960938 167.027344 272.378906 167.191406 272.78125 C 167.359375 273.183594 167.597656 273.539062 167.90625 273.847656 C 168.214844 274.15625 168.570312 274.394531 168.972656 274.5625 C 169.375 274.726562 169.796875 274.8125 170.230469 274.8125 C 170.667969 274.8125 171.085938 274.726562 171.488281 274.5625 C 171.894531 274.394531 172.25 274.15625 172.558594 273.847656 C 172.867188 273.539062 173.101562 273.183594 173.269531 272.78125 C 173.4375 272.378906 173.519531 271.960938 173.519531 271.527344 C 173.519531 271.089844 173.433594 270.675781 173.265625 270.273438 C 173.097656 269.875 172.859375 269.519531 172.550781 269.214844 C 172.242188 268.90625 171.886719 268.671875 171.484375 268.507812 C 171.085938 268.339844 170.664062 268.257812 170.230469 268.257812 Z M 205.023438 268.242188 C 204.585938 268.238281 204.167969 268.320312 203.765625 268.488281 C 203.359375 268.652344 203.003906 268.890625 202.695312 269.199219 C 202.386719 269.503906 202.148438 269.859375 201.980469 270.261719 C 201.8125 270.664062 201.726562 271.085938 201.726562 271.519531 C 201.726562 271.957031 201.808594 272.375 201.976562 272.777344 C 202.140625 273.179688 202.378906 273.535156 202.6875 273.84375 C 202.996094 274.152344 203.351562 274.390625 203.753906 274.558594 C 204.15625 274.726562 204.574219 274.808594 205.011719 274.8125 C 205.449219 274.8125 205.867188 274.726562 206.273438 274.5625 C 206.675781 274.394531 207.03125 274.15625 207.339844 273.847656 C 207.648438 273.542969 207.886719 273.1875 208.054688 272.785156 C 208.222656 272.378906 208.304688 271.960938 208.304688 271.527344 C 208.300781 271.09375 208.21875 270.675781 208.050781 270.277344 C 207.882812 269.875 207.644531 269.523438 207.339844 269.21875 C 207.03125 268.910156 206.675781 268.675781 206.277344 268.507812 C 205.875 268.34375 205.457031 268.257812 205.023438 268.257812 Z M 239.816406 268.242188 C 239.378906 268.246094 238.960938 268.332031 238.5625 268.5 C 238.160156 268.667969 237.804688 268.910156 237.5 269.21875 C 237.195312 269.527344 236.960938 269.886719 236.792969 270.289062 C 236.628906 270.691406 236.550781 271.109375 236.550781 271.546875 C 236.554688 271.980469 236.640625 272.398438 236.808594 272.800781 C 236.980469 273.199219 237.21875 273.554688 237.527344 273.859375 C 237.835938 274.167969 238.195312 274.402344 238.597656 274.566406 C 239 274.730469 239.417969 274.8125 239.855469 274.808594 C 240.292969 274.808594 240.710938 274.722656 241.113281 274.554688 C 241.515625 274.386719 241.867188 274.148438 242.175781 273.839844 C 242.480469 273.53125 242.71875 273.175781 242.882812 272.773438 C 243.050781 272.371094 243.132812 271.953125 243.128906 271.515625 C 243.128906 271.082031 243.039062 270.664062 242.871094 270.261719 C 242.699219 269.859375 242.460938 269.507812 242.148438 269.203125 C 241.839844 268.894531 241.480469 268.660156 241.078125 268.5 C 240.671875 268.335938 240.253906 268.253906 239.816406 268.257812 Z M 274.601562 268.242188 C 274.164062 268.242188 273.746094 268.324219 273.34375 268.492188 C 272.9375 268.65625 272.582031 268.894531 272.273438 269.203125 C 271.964844 269.511719 271.730469 269.867188 271.5625 270.269531 C 271.394531 270.671875 271.3125 271.089844 271.3125 271.527344 C 271.3125 271.960938 271.394531 272.378906 271.5625 272.78125 C 271.730469 273.183594 271.964844 273.539062 272.273438 273.847656 C 272.582031 274.15625 272.9375 274.394531 273.34375 274.5625 C 273.746094 274.726562 274.164062 274.8125 274.601562 274.8125 C 275.035156 274.8125 275.457031 274.726562 275.859375 274.5625 C 276.261719 274.394531 276.617188 274.15625 276.925781 273.847656 C 277.234375 273.539062 277.472656 273.183594 277.640625 272.78125 C 277.804688 272.378906 277.890625 271.960938 277.890625 271.527344 C 277.886719 271.089844 277.800781 270.675781 277.632812 270.273438 C 277.464844 269.875 277.230469 269.519531 276.921875 269.214844 C 276.613281 268.90625 276.257812 268.671875 275.855469 268.507812 C 275.453125 268.339844 275.035156 268.257812 274.601562 268.257812 Z M 309.394531 268.242188 C 308.957031 268.242188 308.539062 268.324219 308.132812 268.492188 C 307.730469 268.65625 307.375 268.894531 307.066406 269.203125 C 306.757812 269.511719 306.519531 269.867188 306.355469 270.269531 C 306.1875 270.671875 306.105469 271.089844 306.105469 271.527344 C 306.105469 271.960938 306.1875 272.378906 306.355469 272.78125 C 306.519531 273.183594 306.757812 273.539062 307.066406 273.847656 C 307.375 274.15625 307.730469 274.394531 308.132812 274.5625 C 308.539062 274.726562 308.957031 274.8125 309.394531 274.8125 C 309.828125 274.8125 310.25 274.726562 310.652344 274.5625 C 311.054688 274.394531 311.410156 274.15625 311.71875 273.847656 C 312.027344 273.539062 312.265625 273.183594 312.433594 272.78125 C 312.597656 272.378906 312.683594 271.960938 312.683594 271.527344 C 312.679688 271.089844 312.59375 270.675781 312.425781 270.273438 C 312.257812 269.875 312.019531 269.519531 311.714844 269.214844 C 311.40625 268.90625 311.050781 268.671875 310.648438 268.507812 C 310.246094 268.339844 309.828125 268.257812 309.394531 268.257812 Z M 344.1875 268.242188 C 343.75 268.238281 343.328125 268.316406 342.921875 268.480469 C 342.515625 268.644531 342.15625 268.878906 341.84375 269.183594 C 341.535156 269.492188 341.292969 269.84375 341.121094 270.246094 C 340.953125 270.648438 340.867188 271.070312 340.863281 271.507812 C 340.859375 271.941406 340.941406 272.363281 341.105469 272.769531 C 341.273438 273.171875 341.507812 273.53125 341.816406 273.839844 C 342.125 274.148438 342.480469 274.386719 342.886719 274.558594 C 343.289062 274.726562 343.710938 274.808594 344.144531 274.808594 C 344.582031 274.8125 345.003906 274.726562 345.410156 274.5625 C 345.8125 274.394531 346.167969 274.15625 346.480469 273.847656 C 346.789062 273.539062 347.027344 273.183594 347.191406 272.777344 C 347.359375 272.375 347.441406 271.953125 347.441406 271.515625 C 347.4375 271.085938 347.351562 270.671875 347.1875 270.277344 C 347.019531 269.878906 346.785156 269.527344 346.480469 269.222656 C 346.175781 268.917969 345.824219 268.683594 345.429688 268.515625 C 345.03125 268.347656 344.617188 268.261719 344.1875 268.257812 Z M 344.1875 268.242188 " fill-opacity="1" fill-rule="nonzero"/></g></svg>