<svg xmlns="http://www.w3.org/2000/svg" xmlns:xlink="http://www.w3.org/1999/xlink" width="500" zoomAndPan="magnify" viewBox="0 0 375 374.999991" height="500" preserveAspectRatio="xMidYMid meet" version="1.0"><defs><clipPath id="8af8a9785b"><path d="M 23.710938 61.621094 L 176 61.621094 L 176 296 L 23.710938 296 Z M 23.710938 61.621094 " clip-rule="nonzero"/></clipPath><clipPath id="9128f345c9"><path d="M 46 85 L 196 85 L 196 313.621094 L 46 313.621094 Z M 46 85 " clip-rule="nonzero"/></clipPath><clipPath id="b3f148cf3d"><path d="M 179 61.621094 L 331 61.621094 L 331 296 L 179 296 Z M 179 61.621094 " clip-rule="nonzero"/></clipPath><clipPath id="037f6913aa"><path d="M 201 85 L 351.460938 85 L 351.460938 313.621094 L 201 313.621094 Z M 201 85 " clip-rule="nonzero"/></clipPath></defs><g clip-path="url(#8af8a9785b)"><path fill="#ff6347" d="M 99.378906 61.824219 C 55.8125 61.824219 23.710938 90.472656 23.710938 135.164062 C 23.710938 165.53125 38.042969 187.871094 60.972656 198.765625 L 32.308594 295.59375 L 112.5625 295.59375 L 152.6875 210.21875 C 172.75 167.25 175.042969 153.5 175.042969 135.164062 C 175.042969 90.472656 142.941406 61.824219 99.378906 61.824219 Z M 99.378906 61.824219 " fill-opacity="1" fill-rule="nonzero"/></g><g clip-path="url(#9128f345c9)"><path fill="#ff6347" d="M 121.019531 85.199219 C 131.242188 85.117188 141.160156 86.820312 150.769531 90.304688 C 159.707031 93.554688 167.636719 98.433594 174.570312 104.941406 C 177.980469 108.171875 181.007812 111.726562 183.660156 115.605469 C 186.3125 119.484375 188.523438 123.597656 190.296875 127.949219 C 194.15625 137.5625 196.035156 147.546875 195.933594 157.90625 C 196.117188 167.3125 194.921875 176.539062 192.351562 185.589844 C 189.285156 196.640625 183.75 210.5 174.398438 230.523438 L 135.441406 313.410156 L 53.28125 313.410156 L 80.953125 219.917969 C 76.183594 217.4375 71.792969 214.40625 67.785156 210.824219 C 63.167969 206.671875 59.261719 201.933594 56.070312 196.609375 C 52.75 191.035156 50.285156 185.105469 48.671875 178.824219 C 46.925781 171.957031 46.070312 164.984375 46.109375 157.902344 C 46.007812 147.542969 47.886719 137.558594 51.746094 127.949219 C 53.519531 123.597656 55.730469 119.484375 58.382812 115.609375 C 61.03125 111.730469 64.0625 108.175781 67.472656 104.945312 C 74.402344 98.433594 82.335938 93.554688 91.273438 90.304688 C 100.882812 86.820312 110.800781 85.117188 121.019531 85.199219 Z M 169.03125 228.019531 C 187.941406 187.515625 190.011719 175.019531 190.011719 157.90625 C 190.011719 117.960938 162.285156 91.132812 121.019531 91.132812 C 79.757812 91.132812 52.03125 117.96875 52.03125 157.90625 C 52.03125 184.457031 64.328125 205.527344 85.769531 215.707031 L 88.058594 216.792969 L 61.210938 307.5 L 131.675781 307.5 Z M 169.03125 228.019531 " fill-opacity="1" fill-rule="nonzero"/></g><g clip-path="url(#b3f148cf3d)"><path fill="#ff6347" d="M 254.90625 61.824219 C 211.339844 61.824219 179.238281 90.472656 179.238281 135.164062 C 179.238281 165.53125 193.570312 187.871094 216.5 198.765625 L 187.835938 295.59375 L 268.089844 295.59375 L 308.214844 210.21875 C 328.277344 167.25 330.570312 153.5 330.570312 135.164062 C 330.570312 90.472656 298.46875 61.824219 254.90625 61.824219 Z M 254.90625 61.824219 " fill-opacity="1" fill-rule="nonzero"/></g><g clip-path="url(#037f6913aa)"><path fill="#ff6347" d="M 276.546875 85.199219 C 286.769531 85.117188 296.6875 86.820312 306.296875 90.304688 C 315.234375 93.554688 323.164062 98.433594 330.09375 104.941406 C 333.503906 108.171875 336.535156 111.726562 339.1875 115.605469 C 341.839844 119.484375 344.050781 123.597656 345.824219 127.949219 C 349.683594 137.5625 351.5625 147.546875 351.460938 157.90625 C 351.640625 167.3125 350.449219 176.539062 347.878906 185.589844 C 344.8125 196.640625 339.277344 210.5 329.925781 230.523438 L 290.96875 313.410156 L 208.808594 313.410156 L 236.480469 219.917969 C 231.710938 217.4375 227.320312 214.40625 223.3125 210.824219 C 218.695312 206.671875 214.789062 201.933594 211.597656 196.609375 C 208.277344 191.035156 205.8125 185.105469 204.199219 178.824219 C 202.453125 171.957031 201.597656 164.984375 201.632812 157.902344 C 201.535156 147.542969 203.414062 137.558594 207.273438 127.949219 C 209.046875 123.597656 211.257812 119.484375 213.910156 115.609375 C 216.558594 111.730469 219.589844 108.175781 223 104.945312 C 229.929688 98.433594 237.863281 93.554688 246.800781 90.304688 C 256.410156 86.820312 266.324219 85.117188 276.546875 85.199219 Z M 324.558594 228.019531 C 343.46875 187.515625 345.535156 175.019531 345.535156 157.90625 C 345.535156 117.960938 317.8125 91.132812 276.546875 91.132812 C 235.28125 91.132812 207.558594 117.96875 207.558594 157.90625 C 207.558594 184.457031 219.851562 205.527344 241.296875 215.707031 L 243.585938 216.792969 L 216.738281 307.5 L 287.203125 307.5 Z M 324.558594 228.019531 " fill-opacity="1" fill-rule="nonzero"/></g></svg>