<svg xmlns="http://www.w3.org/2000/svg" xmlns:xlink="http://www.w3.org/1999/xlink" width="500" zoomAndPan="magnify" viewBox="0 0 375 374.999991" height="500" preserveAspectRatio="xMidYMid meet" version="1.0"><defs><clipPath id="aa94aee503"><path d="M 200 77 L 354.507812 77 L 354.507812 315.738281 L 200 315.738281 Z M 200 77 " clip-rule="nonzero"/></clipPath><clipPath id="a9f7a54dcd"><path d="M 179 59.238281 L 332 59.238281 L 332 292 L 179 292 Z M 179 59.238281 " clip-rule="nonzero"/></clipPath><clipPath id="5705ca3ebd"><path d="M 42 77 L 197 77 L 197 315.738281 L 42 315.738281 Z M 42 77 " clip-rule="nonzero"/></clipPath><clipPath id="d6dc86fb35"><path d="M 20.757812 59.238281 L 174 59.238281 L 174 292 L 20.757812 292 Z M 20.757812 59.238281 " clip-rule="nonzero"/></clipPath></defs><g clip-path="url(#aa94aee503)"><path fill="#ff6347" d="M 277.457031 315.527344 C 321.820312 315.527344 354.507812 286.367188 354.507812 240.878906 C 354.507812 209.96875 339.917969 187.230469 316.566406 176.144531 L 345.753906 77.589844 L 264.03125 77.589844 L 223.171875 164.484375 C 202.742188 208.21875 200.40625 222.21875 200.40625 240.878906 C 200.40625 286.367188 233.09375 315.527344 277.457031 315.527344 Z M 277.457031 315.527344 " fill-opacity="1" fill-rule="nonzero"/></g><g clip-path="url(#a9f7a54dcd)"><path fill="#ff6347" d="M 255.417969 291.738281 C 245.007812 291.816406 234.910156 290.085938 225.125 286.539062 C 220.621094 284.902344 216.332031 282.832031 212.25 280.320312 C 208.167969 277.8125 204.382812 274.917969 200.890625 271.640625 C 197.417969 268.351562 194.332031 264.734375 191.632812 260.785156 C 188.933594 256.839844 186.679688 252.652344 184.875 248.226562 C 180.945312 238.441406 179.03125 228.277344 179.132812 217.734375 C 178.949219 208.160156 180.164062 198.765625 182.78125 189.550781 C 185.902344 178.304688 191.542969 164.199219 201.0625 143.816406 L 240.734375 59.453125 L 324.398438 59.453125 L 296.21875 154.613281 C 301.078125 157.136719 305.546875 160.222656 309.628906 163.871094 C 314.332031 168.09375 318.308594 172.917969 321.558594 178.335938 C 324.9375 184.011719 327.449219 190.046875 329.089844 196.441406 C 330.871094 203.429688 331.738281 210.527344 331.703125 217.738281 C 331.804688 228.277344 329.890625 238.441406 325.960938 248.222656 C 324.15625 252.652344 321.902344 256.835938 319.203125 260.785156 C 316.503906 264.730469 313.417969 268.351562 309.945312 271.636719 C 306.453125 274.917969 302.667969 277.8125 298.585938 280.320312 C 294.507812 282.828125 290.214844 284.902344 285.710938 286.539062 C 275.925781 290.085938 265.828125 291.816406 255.417969 291.738281 Z M 206.53125 146.367188 C 187.273438 187.59375 185.167969 200.3125 185.167969 217.734375 C 185.167969 258.386719 213.398438 285.695312 255.417969 285.695312 C 297.4375 285.695312 325.671875 258.382812 325.671875 217.734375 C 325.671875 190.707031 313.152344 169.261719 291.3125 158.898438 L 288.984375 157.792969 L 316.324219 65.46875 L 244.566406 65.46875 Z M 206.53125 146.367188 " fill-opacity="1" fill-rule="nonzero"/></g><g clip-path="url(#5705ca3ebd)"><path fill="#ff6347" d="M 119.082031 315.527344 C 163.445312 315.527344 196.136719 286.367188 196.136719 240.878906 C 196.136719 209.96875 181.542969 187.230469 158.191406 176.144531 L 187.378906 77.589844 L 105.660156 77.589844 L 64.796875 164.484375 C 44.367188 208.21875 42.03125 222.21875 42.03125 240.878906 C 42.03125 286.367188 74.722656 315.527344 119.082031 315.527344 Z M 119.082031 315.527344 " fill-opacity="1" fill-rule="nonzero"/></g><g clip-path="url(#d6dc86fb35)"><path fill="#ff6347" d="M 97.042969 291.738281 C 86.636719 291.816406 76.539062 290.085938 66.75 286.539062 C 62.25 284.902344 57.957031 282.832031 53.875 280.320312 C 49.796875 277.8125 46.007812 274.917969 42.515625 271.640625 C 39.042969 268.351562 35.957031 264.734375 33.257812 260.785156 C 30.558594 256.839844 28.304688 252.652344 26.5 248.226562 C 22.570312 238.441406 20.65625 228.277344 20.757812 217.734375 C 20.574219 208.160156 21.792969 198.765625 24.40625 189.550781 C 27.53125 178.304688 33.167969 164.199219 42.691406 143.816406 L 82.359375 59.453125 L 166.023438 59.453125 L 137.84375 154.613281 C 142.703125 157.136719 147.171875 160.222656 151.253906 163.871094 C 155.957031 168.09375 159.933594 172.917969 163.1875 178.335938 C 166.566406 184.011719 169.074219 190.046875 170.714844 196.441406 C 172.496094 203.429688 173.367188 210.527344 173.328125 217.738281 C 173.429688 228.277344 171.515625 238.441406 167.585938 248.222656 C 165.78125 252.652344 163.53125 256.835938 160.832031 260.785156 C 158.128906 264.730469 155.042969 268.351562 151.570312 271.636719 C 148.078125 274.917969 144.292969 277.8125 140.210938 280.320312 C 136.132812 282.828125 131.839844 284.902344 127.335938 286.539062 C 117.550781 290.085938 107.453125 291.816406 97.042969 291.738281 Z M 48.15625 146.367188 C 28.898438 187.59375 26.792969 200.3125 26.792969 217.734375 C 26.792969 258.386719 55.023438 285.695312 97.042969 285.695312 C 139.066406 285.695312 167.296875 258.382812 167.296875 217.734375 C 167.296875 190.707031 154.777344 169.261719 132.9375 158.898438 L 130.609375 157.792969 L 157.949219 65.46875 L 86.191406 65.46875 Z M 48.15625 146.367188 " fill-opacity="1" fill-rule="nonzero"/></g></svg>