<svg xmlns="http://www.w3.org/2000/svg" xmlns:xlink="http://www.w3.org/1999/xlink" width="500" zoomAndPan="magnify" viewBox="0 0 375 374.999991" height="500" preserveAspectRatio="xMidYMid meet" version="1.0"><path fill="#e82204" d="M 340.476562 132.855469 C 374.84375 223.335938 333.96875 305.792969 255.128906 338.121094 C 157.753906 378.042969 74.460938 332.164062 43.039062 249.246094 C 11.617188 166.324219 52.023438 66.050781 137.457031 32.773438 C 221.460938 0.0585938 307.824219 46.867188 340.476562 132.855469 " fill-opacity="1" fill-rule="nonzero"/><path fill="#fa5d41" d="M 154.832031 52.449219 C 141.449219 56.71875 119.128906 51.664062 105.539062 62.582031 C 91.949219 73.496094 69.207031 96.480469 58.257812 149.070312 C 47.304688 201.652344 58.253906 241.109375 65.878906 255.199219 C 73.511719 269.292969 81.035156 271.601562 92.632812 281.097656 C 104.238281 290.59375 109.390625 302.695312 116.140625 312.382812 C 123.78125 323.339844 146.285156 345.152344 209.855469 333.335938 C 273.429688 321.519531 305.425781 285.242188 319.125 253.496094 C 332.832031 221.753906 342.238281 198.296875 332.292969 175.0625 C 322.34375 151.824219 310.679688 150.714844 310.777344 138.101562 C 310.910156 120.988281 313.242188 99.144531 283.054688 75.300781 C 252.859375 51.460938 216.207031 37.457031 196.84375 37.679688 C 177.484375 37.894531 170.632812 47.414062 154.832031 52.449219 " fill-opacity="1" fill-rule="nonzero"/><path fill="#ff896b" d="M 175.585938 168.53125 C 169.113281 168.304688 157.085938 141.3125 147.65625 145.179688 C 139.265625 148.617188 132.214844 162.433594 128.925781 176.257812 C 125.640625 190.074219 123.816406 203.152344 143.199219 199.582031 C 164.625 195.632812 163.726562 201.949219 160.746094 206.433594 C 157.765625 210.917969 150.265625 221.914062 155.277344 226.847656 C 160.28125 231.777344 174.890625 225.324219 181.738281 219.722656 C 188.589844 214.121094 193.726562 224.125 189.875 234.089844 C 186.027344 244.054688 180.21875 257.148438 190.511719 259.449219 C 200.808594 261.753906 231.703125 250.945312 245.816406 234.910156 C 259.929688 218.875 258.394531 201.800781 253.757812 199.042969 C 249.125 196.289062 228.863281 203.71875 224.476562 198.066406 C 220.089844 192.410156 243.90625 188.953125 241.503906 180.917969 C 239.441406 173.992188 225.503906 179.925781 220.359375 175.394531 C 216.234375 171.765625 223.613281 163.359375 235.273438 162.429688 C 252.015625 161.09375 246.191406 151.828125 238.648438 141.410156 C 231.113281 130.992188 213.578125 121.410156 205.269531 124.347656 C 196.960938 127.289062 204.121094 152.003906 199.3125 153.511719 C 194.496094 155.019531 188.933594 134.550781 181.101562 137.523438 C 173.769531 140.304688 186.046875 168.902344 175.585938 168.53125 " fill-opacity="1" fill-rule="nonzero"/><path fill="#c41a00" d="M 160.746094 206.433594 C 163.726562 201.949219 164.625 195.632812 143.199219 199.582031 C 123.816406 203.152344 125.640625 190.074219 128.925781 176.257812 C 132.214844 162.433594 139.269531 148.617188 147.65625 145.179688 C 157.085938 141.3125 169.113281 168.304688 175.585938 168.53125 C 181.644531 168.746094 180.078125 159.238281 179.105469 150.664062 C 171.3125 132.757812 163.964844 115.050781 147.796875 96.550781 C 129.71875 75.859375 115.082031 84.519531 98.914062 107.476562 C 82.753906 130.433594 76.261719 174.105469 76.777344 194.78125 C 77.300781 215.453125 84.691406 250.398438 104.847656 248.585938 C 124.734375 246.800781 156.324219 213.023438 157.175781 212.105469 C 158.464844 209.839844 159.824219 207.824219 160.746094 206.433594 " fill-opacity="1" fill-rule="nonzero"/><path fill="#c41a00" d="M 275.839844 175.820312 C 258.828125 180.136719 230.105469 191.464844 230.105469 191.464844 C 225.902344 193.617188 222.59375 195.636719 224.476562 198.066406 C 228.863281 203.71875 249.125 196.289062 253.757812 199.042969 C 258.394531 201.800781 259.929688 218.875 245.816406 234.910156 C 231.707031 250.945312 200.808594 261.753906 190.511719 259.449219 C 180.21875 257.148438 186.027344 244.054688 189.875 234.089844 C 193.726562 224.125 188.589844 214.121094 181.738281 219.722656 C 177.597656 223.109375 170.617188 226.8125 164.644531 228.109375 C 149.1875 246.386719 125.347656 285.507812 140.523438 297.375 C 152.585938 306.804688 193.550781 314.746094 238.109375 297.234375 C 282.671875 279.722656 306.984375 245.449219 307.609375 211.402344 C 308.230469 177.34375 292.855469 171.496094 275.839844 175.820312 " fill-opacity="1" fill-rule="nonzero"/><path fill="#c41a00" d="M 281.597656 103.207031 C 265.300781 91.683594 245.808594 89.929688 231.699219 78.972656 C 217.585938 68.015625 198.5625 56.605469 186.457031 68.464844 C 174.355469 80.320312 182.058594 124.410156 191.148438 144.679688 C 194.199219 149.324219 196.855469 154.28125 199.3125 153.511719 C 204.121094 152.003906 196.960938 127.289062 205.269531 124.347656 C 213.578125 121.410156 231.113281 130.992188 238.648438 141.410156 C 246.191406 151.828125 252.015625 161.09375 235.273438 162.429688 C 223.613281 163.359375 216.234375 171.765625 220.359375 175.394531 C 222.738281 177.488281 226.984375 177.34375 231.074219 177.273438 C 293.816406 156.675781 297.578125 114.5 281.597656 103.207031 " fill-opacity="1" fill-rule="nonzero"/><path fill="#ffa05c" d="M 235.820312 123.132812 C 238.382812 125.023438 250.484375 117.355469 252.445312 111.132812 C 254.394531 104.914062 246.945312 99.019531 242.234375 99.769531 C 236.46875 100.691406 232.277344 120.515625 235.820312 123.132812 " fill-opacity="1" fill-rule="nonzero"/><path fill="#ffa05c" d="M 262.40625 234.121094 C 261.214844 236.871094 270.410156 246.066406 276.183594 246.78125 C 281.960938 247.496094 285.429688 240.230469 283.929688 235.933594 C 282.097656 230.671875 264.054688 230.308594 262.40625 234.121094 " fill-opacity="1" fill-rule="nonzero"/><path fill="#ffa05c" d="M 140.769531 130.378906 C 143.496094 128.746094 141.851562 114.121094 137.234375 109.6875 C 132.609375 105.253906 124.335938 109.835938 123.019531 114.589844 C 121.414062 120.417969 136.996094 132.628906 140.769531 130.378906 " fill-opacity="1" fill-rule="nonzero"/><path fill="#ffa05c" d="M 121.027344 203.742188 C 118.953125 201.289062 105.472656 205.847656 102.1875 211.4375 C 98.910156 217.023438 104.847656 224.550781 109.59375 224.941406 C 115.410156 225.429688 123.890625 207.140625 121.027344 203.742188 " fill-opacity="1" fill-rule="nonzero"/><path fill="#ffa05c" d="M 176.535156 263.527344 C 174.464844 261.074219 160.988281 265.636719 157.703125 271.222656 C 154.425781 276.804688 160.363281 284.332031 165.109375 284.730469 C 170.925781 285.214844 179.402344 266.921875 176.535156 263.527344 " fill-opacity="1" fill-rule="nonzero"/><path fill="#ffa05c" d="M 251.589844 139.023438 C 252.199219 141.636719 263.449219 142.796875 268.824219 140.273438 C 274.199219 137.75 272.402344 127.125 268.09375 124.722656 C 263.945312 122.402344 250.597656 134.78125 251.589844 139.023438 " fill-opacity="1" fill-rule="nonzero"/><path fill="#ffa05c" d="M 236.34375 257.542969 C 234.105469 258.902344 236.273438 270.433594 240.144531 275.046875 C 244.011719 279.664062 253.292969 274.800781 254.269531 269.820312 C 255.210938 265.023438 239.96875 255.324219 236.34375 257.542969 " fill-opacity="1" fill-rule="nonzero"/><path fill="#ffa05c" d="M 268.164062 201.871094 C 268.023438 204.554688 278.476562 209.027344 284.324219 208.210938 C 290.164062 207.402344 291.382812 196.679688 287.925781 193.09375 C 284.59375 189.636719 268.386719 197.507812 268.164062 201.871094 " fill-opacity="1" fill-rule="nonzero"/><path fill="#ffa05c" d="M 123.488281 146.367188 C 124.742188 144.011719 117.21875 135.25 111.621094 133.332031 C 106.027344 131.417969 100.425781 140.515625 102.03125 145.3125 C 103.578125 149.933594 121.453125 150.191406 123.488281 146.367188 " fill-opacity="1" fill-rule="nonzero"/><path fill="#ffa05c" d="M 214.816406 112.183594 C 217.292969 113.976562 223.011719 97.976562 221.316406 93.421875 C 218.851562 86.777344 209.273438 87.695312 205.757812 90.992188 C 200.371094 96.058594 210.769531 109.246094 214.816406 112.183594 " fill-opacity="1" fill-rule="nonzero"/><path fill="#ffa05c" d="M 113.535156 176.65625 C 115.300781 174.105469 99.984375 167.96875 95.574219 169.667969 C 89.144531 172.152344 89.890625 182.113281 93.011719 185.800781 C 97.800781 191.460938 110.652344 180.820312 113.535156 176.65625 " fill-opacity="1" fill-rule="nonzero"/><path fill="#ffa05c" d="M 204.476562 269.414062 C 204.207031 269.195312 194.226562 279.117188 196.800781 287.691406 C 198.835938 294.488281 208.449219 294.230469 212.167969 291.183594 C 217.867188 286.503906 208.328125 272.625 204.476562 269.414062 " fill-opacity="1" fill-rule="nonzero"/></svg>